<svg width="512" height="512" viewBox="0 0 32 32" fill="none" xmlns="http://www.w3.org/2000/svg">
  <rect width="32" height="32" rx="6" fill="#1a1a1a"/>
  <path
    d="M30.6666 28.0708C30.6666 29.0792 29.8416 29.9042 28.8333 29.9042H3.16659C2.15825 29.9042 1.33325 29.0792 1.33325 28.0708V17.0708C1.33325 16.0625 1.91625 14.6545 2.63003 13.9407L14.7031 1.86761C15.4157 1.15505 16.5829 1.15505 17.2955 1.86761L29.3698 13.9419C30.0824 14.6545 30.6666 16.0637 30.6666 17.0721V28.072V28.0708Z"
    fill="#F2F4F9"
  />
  <path
    d="M29.3698 13.9407L17.2967 1.86761C16.5841 1.15505 15.4169 1.15505 14.7044 1.86761L2.63003 13.9407C1.91747 14.6533 1.33325 16.0625 1.33325 17.0708V28.0708C1.33325 29.0792 2.15825 29.9042 3.16659 29.9042H14.444L9.47814 24.9383C9.2227 25.0263 8.95014 25.0764 8.66659 25.0764C7.28547 25.0764 6.16103 23.9519 6.16103 22.5708C6.16103 21.1897 7.28547 20.0653 8.66659 20.0653C10.0477 20.0653 11.1721 21.1897 11.1721 22.5708C11.1721 22.8556 11.122 23.1282 11.034 23.3836L14.8999 27.2495V13.0864C14.0688 12.6782 13.4944 11.8251 13.4944 10.8387C13.4944 9.45761 14.6188 8.33316 15.9999 8.33316C17.381 8.33316 18.5055 9.45761 18.5055 10.8387C18.5055 11.8251 17.931 12.6782 17.0999 13.0864V23.0194L20.945 19.1743C20.8693 18.9347 20.8277 18.6805 20.8277 18.4165C20.8277 17.0354 21.9521 15.9109 23.3333 15.9109C24.7144 15.9109 25.8388 17.0354 25.8388 18.4165C25.8388 19.7976 24.7144 20.922 23.3333 20.922C23.0277 20.922 22.7368 20.8646 22.4667 20.7644L17.0999 26.1312V29.9054H28.8333C29.8416 29.9054 30.6666 29.0804 30.6666 28.072V17.072C30.6666 16.0637 30.0836 14.6557 29.3698 13.9419V13.9407Z"
    fill="#18BCF2"
  />
</svg>
